<mxfile host="app.diagrams.net" modified="2024-05-08T21:57:19.785Z" agent="Mozilla/5.0 (Windows NT 10.0; Win64; x64) AppleWebKit/537.36 (KHTML, like Gecko) Chrome/124.0.0.0 Safari/537.36" etag="_tspgdp05BViFzsULO9Q" version="24.3.1" type="github">
  <diagram name="Page-1" id="pBbTRJXqXZo4k6cFpGII">
    <mxGraphModel dx="819" dy="449" grid="1" gridSize="10" guides="1" tooltips="1" connect="1" arrows="1" fold="1" page="1" pageScale="1" pageWidth="850" pageHeight="1400" math="0" shadow="0">
      <root>
        <mxCell id="0" />
        <mxCell id="1" parent="0" />
        <mxCell id="UGfW0L7oNal3inAN7M51-1" value="Users enter TG through link/QR code" style="ellipse;whiteSpace=wrap;html=1;" parent="1" vertex="1">
          <mxGeometry x="365" y="20" width="120" height="80" as="geometry" />
        </mxCell>
        <mxCell id="UGfW0L7oNal3inAN7M51-2" value="" style="endArrow=classic;html=1;rounded=0;" parent="1" edge="1">
          <mxGeometry width="50" height="50" relative="1" as="geometry">
            <mxPoint x="425" y="100" as="sourcePoint" />
            <mxPoint x="425" y="200" as="targetPoint" />
          </mxGeometry>
        </mxCell>
        <mxCell id="UGfW0L7oNal3inAN7M51-3" value="Is user verified?" style="rounded=1;whiteSpace=wrap;html=1;" parent="1" vertex="1">
          <mxGeometry x="365" y="200" width="120" height="60" as="geometry" />
        </mxCell>
        <mxCell id="UGfW0L7oNal3inAN7M51-4" value="YES" style="text;html=1;align=center;verticalAlign=middle;whiteSpace=wrap;rounded=0;" parent="1" vertex="1">
          <mxGeometry x="550" y="200" width="60" height="30" as="geometry" />
        </mxCell>
        <mxCell id="UGfW0L7oNal3inAN7M51-5" value="NO" style="text;html=1;align=center;verticalAlign=middle;whiteSpace=wrap;rounded=0;" parent="1" vertex="1">
          <mxGeometry x="250" y="200" width="60" height="30" as="geometry" />
        </mxCell>
        <mxCell id="UGfW0L7oNal3inAN7M51-7" value="" style="endArrow=classic;html=1;rounded=0;" parent="1" edge="1">
          <mxGeometry width="50" height="50" relative="1" as="geometry">
            <mxPoint x="485" y="240" as="sourcePoint" />
            <mxPoint x="490" y="400" as="targetPoint" />
            <Array as="points">
              <mxPoint x="580" y="240" />
              <mxPoint x="580" y="400" />
            </Array>
          </mxGeometry>
        </mxCell>
        <mxCell id="UGfW0L7oNal3inAN7M51-8" value="&lt;u&gt;Bot prompts&lt;/u&gt; users go through KYC + Wallet creation" style="whiteSpace=wrap;html=1;aspect=fixed;" parent="1" vertex="1">
          <mxGeometry x="240" y="280" width="80" height="80" as="geometry" />
        </mxCell>
        <mxCell id="UGfW0L7oNal3inAN7M51-9" value="" style="endArrow=classic;html=1;rounded=0;entryX=0.491;entryY=-0.048;entryDx=0;entryDy=0;entryPerimeter=0;" parent="1" target="UGfW0L7oNal3inAN7M51-8" edge="1">
          <mxGeometry width="50" height="50" relative="1" as="geometry">
            <mxPoint x="365" y="240" as="sourcePoint" />
            <mxPoint x="415" y="190" as="targetPoint" />
            <Array as="points">
              <mxPoint x="280" y="240" />
            </Array>
          </mxGeometry>
        </mxCell>
        <mxCell id="UGfW0L7oNal3inAN7M51-10" value="KYC" style="swimlane;fontStyle=0;childLayout=stackLayout;horizontal=1;startSize=30;horizontalStack=0;resizeParent=1;resizeParentMax=0;resizeLast=0;collapsible=1;marginBottom=0;whiteSpace=wrap;html=1;" parent="1" vertex="1">
          <mxGeometry x="70" y="250" width="120" height="120" as="geometry" />
        </mxCell>
        <mxCell id="UGfW0L7oNal3inAN7M51-11" value="Photo ID" style="text;strokeColor=none;fillColor=none;align=left;verticalAlign=middle;spacingLeft=4;spacingRight=4;overflow=hidden;points=[[0,0.5],[1,0.5]];portConstraint=eastwest;rotatable=0;whiteSpace=wrap;html=1;" parent="UGfW0L7oNal3inAN7M51-10" vertex="1">
          <mxGeometry y="30" width="120" height="30" as="geometry" />
        </mxCell>
        <mxCell id="UGfW0L7oNal3inAN7M51-12" value="Pictures" style="text;strokeColor=none;fillColor=none;align=left;verticalAlign=middle;spacingLeft=4;spacingRight=4;overflow=hidden;points=[[0,0.5],[1,0.5]];portConstraint=eastwest;rotatable=0;whiteSpace=wrap;html=1;" parent="UGfW0L7oNal3inAN7M51-10" vertex="1">
          <mxGeometry y="60" width="120" height="30" as="geometry" />
        </mxCell>
        <mxCell id="UGfW0L7oNal3inAN7M51-13" value="Documents" style="text;strokeColor=none;fillColor=none;align=left;verticalAlign=middle;spacingLeft=4;spacingRight=4;overflow=hidden;points=[[0,0.5],[1,0.5]];portConstraint=eastwest;rotatable=0;whiteSpace=wrap;html=1;" parent="UGfW0L7oNal3inAN7M51-10" vertex="1">
          <mxGeometry y="90" width="120" height="30" as="geometry" />
        </mxCell>
        <mxCell id="UGfW0L7oNal3inAN7M51-14" value="" style="endArrow=none;html=1;rounded=0;entryX=-0.009;entryY=0.616;entryDx=0;entryDy=0;entryPerimeter=0;" parent="1" edge="1">
          <mxGeometry width="50" height="50" relative="1" as="geometry">
            <mxPoint x="190" y="320.36" as="sourcePoint" />
            <mxPoint x="239.27999999999997" y="319.64" as="targetPoint" />
          </mxGeometry>
        </mxCell>
        <mxCell id="UGfW0L7oNal3inAN7M51-15" value="&lt;u&gt;Bot prompts&lt;/u&gt;&amp;nbsp;users they are now allowed to use mini-app" style="rounded=1;whiteSpace=wrap;html=1;" parent="1" vertex="1">
          <mxGeometry x="365" y="360" width="120" height="60" as="geometry" />
        </mxCell>
        <mxCell id="UGfW0L7oNal3inAN7M51-16" value="" style="endArrow=classic;html=1;rounded=0;" parent="1" edge="1">
          <mxGeometry width="50" height="50" relative="1" as="geometry">
            <mxPoint x="280" y="360" as="sourcePoint" />
            <mxPoint x="360" y="400" as="targetPoint" />
            <Array as="points">
              <mxPoint x="280" y="400" />
            </Array>
          </mxGeometry>
        </mxCell>
        <mxCell id="UGfW0L7oNal3inAN7M51-17" value="&lt;h1 style=&quot;margin-top: 0px;&quot;&gt;Onboarding&lt;/h1&gt;&lt;p&gt;Flowchart demonstrating the process for onboarding new validators to mini-app&lt;/p&gt;" style="text;html=1;whiteSpace=wrap;overflow=hidden;rounded=0;" parent="1" vertex="1">
          <mxGeometry x="620" y="10" width="180" height="120" as="geometry" />
        </mxCell>
        <mxCell id="UGfW0L7oNal3inAN7M51-18" value="" style="endArrow=classic;html=1;rounded=0;fillColor=#FF8000;strokeColor=#FF8000;" parent="1" edge="1">
          <mxGeometry width="50" height="50" relative="1" as="geometry">
            <mxPoint x="425" y="420" as="sourcePoint" />
            <mxPoint x="425" y="520" as="targetPoint" />
          </mxGeometry>
        </mxCell>
        <mxCell id="UGfW0L7oNal3inAN7M51-19" value="&lt;h1 style=&quot;margin-top: 0px;&quot;&gt;App Use (User POV)&lt;/h1&gt;&lt;p&gt;Flowchart of users using mini-app&lt;/p&gt;" style="text;html=1;whiteSpace=wrap;overflow=hidden;rounded=0;" parent="1" vertex="1">
          <mxGeometry x="610" y="440" width="180" height="120" as="geometry" />
        </mxCell>
        <mxCell id="UGfW0L7oNal3inAN7M51-21" value="User opens mini-app" style="ellipse;whiteSpace=wrap;html=1;" parent="1" vertex="1">
          <mxGeometry x="365" y="520" width="120" height="80" as="geometry" />
        </mxCell>
        <mxCell id="UGfW0L7oNal3inAN7M51-22" value="" style="endArrow=classic;html=1;rounded=0;entryX=0.5;entryY=0;entryDx=0;entryDy=0;" parent="1" edge="1" target="6Sj1fqQ_iFhuGv7eRnGK-1">
          <mxGeometry width="50" height="50" relative="1" as="geometry">
            <mxPoint x="425" y="600" as="sourcePoint" />
            <mxPoint x="425" y="660" as="targetPoint" />
            <Array as="points">
              <mxPoint x="425" y="640" />
              <mxPoint x="310" y="640" />
            </Array>
          </mxGeometry>
        </mxCell>
        <mxCell id="6Sj1fqQ_iFhuGv7eRnGK-1" value="Upload File" style="rounded=0;whiteSpace=wrap;html=1;" vertex="1" parent="1">
          <mxGeometry x="250" y="660" width="120" height="60" as="geometry" />
        </mxCell>
        <mxCell id="6Sj1fqQ_iFhuGv7eRnGK-2" value="Start Camera" style="rounded=0;whiteSpace=wrap;html=1;" vertex="1" parent="1">
          <mxGeometry x="490" y="660" width="120" height="60" as="geometry" />
        </mxCell>
        <mxCell id="6Sj1fqQ_iFhuGv7eRnGK-3" value="" style="endArrow=classic;html=1;rounded=0;entryX=0.5;entryY=0;entryDx=0;entryDy=0;" edge="1" parent="1" target="6Sj1fqQ_iFhuGv7eRnGK-2">
          <mxGeometry width="50" height="50" relative="1" as="geometry">
            <mxPoint x="425" y="640" as="sourcePoint" />
            <mxPoint x="475" y="590" as="targetPoint" />
            <Array as="points">
              <mxPoint x="550" y="640" />
            </Array>
          </mxGeometry>
        </mxCell>
        <mxCell id="6Sj1fqQ_iFhuGv7eRnGK-5" value="" style="endArrow=classic;html=1;rounded=0;" edge="1" parent="1">
          <mxGeometry width="50" height="50" relative="1" as="geometry">
            <mxPoint x="550" y="720" as="sourcePoint" />
            <mxPoint x="550" y="760" as="targetPoint" />
          </mxGeometry>
        </mxCell>
        <mxCell id="6Sj1fqQ_iFhuGv7eRnGK-7" value="" style="endArrow=classic;html=1;rounded=0;" edge="1" parent="1">
          <mxGeometry width="50" height="50" relative="1" as="geometry">
            <mxPoint x="309.71000000000004" y="720" as="sourcePoint" />
            <mxPoint x="309.71000000000004" y="760" as="targetPoint" />
          </mxGeometry>
        </mxCell>
        <mxCell id="6Sj1fqQ_iFhuGv7eRnGK-9" value="User snaps picture using front or rear facing camera" style="rounded=0;whiteSpace=wrap;html=1;" vertex="1" parent="1">
          <mxGeometry x="490" y="850" width="120" height="60" as="geometry" />
        </mxCell>
        <mxCell id="6Sj1fqQ_iFhuGv7eRnGK-10" value="Is there internet?" style="rounded=1;whiteSpace=wrap;html=1;" vertex="1" parent="1">
          <mxGeometry x="370" y="950" width="120" height="60" as="geometry" />
        </mxCell>
        <mxCell id="6Sj1fqQ_iFhuGv7eRnGK-12" value="YES" style="text;html=1;align=center;verticalAlign=middle;whiteSpace=wrap;rounded=0;" vertex="1" parent="1">
          <mxGeometry x="505" y="960" width="60" height="30" as="geometry" />
        </mxCell>
        <mxCell id="6Sj1fqQ_iFhuGv7eRnGK-13" value="NO" style="text;html=1;align=center;verticalAlign=middle;whiteSpace=wrap;rounded=0;" vertex="1" parent="1">
          <mxGeometry x="295" y="960" width="60" height="30" as="geometry" />
        </mxCell>
        <mxCell id="6Sj1fqQ_iFhuGv7eRnGK-14" value="Save/keep picture on device" style="rounded=0;whiteSpace=wrap;html=1;" vertex="1" parent="1">
          <mxGeometry x="280" y="1010" width="60" height="50" as="geometry" />
        </mxCell>
        <mxCell id="6Sj1fqQ_iFhuGv7eRnGK-15" value="" style="endArrow=classic;html=1;rounded=0;entryX=0.445;entryY=-0.034;entryDx=0;entryDy=0;entryPerimeter=0;" edge="1" parent="1" target="6Sj1fqQ_iFhuGv7eRnGK-14">
          <mxGeometry width="50" height="50" relative="1" as="geometry">
            <mxPoint x="370" y="990" as="sourcePoint" />
            <mxPoint x="280" y="990" as="targetPoint" />
            <Array as="points">
              <mxPoint x="307" y="990" />
            </Array>
          </mxGeometry>
        </mxCell>
        <mxCell id="6Sj1fqQ_iFhuGv7eRnGK-16" value="Upload picture" style="rounded=0;whiteSpace=wrap;html=1;" vertex="1" parent="1">
          <mxGeometry x="370" y="1110" width="120" height="60" as="geometry" />
        </mxCell>
        <mxCell id="6Sj1fqQ_iFhuGv7eRnGK-17" value="User grants storage permissions" style="rounded=0;whiteSpace=wrap;html=1;" vertex="1" parent="1">
          <mxGeometry x="250" y="760" width="120" height="60" as="geometry" />
        </mxCell>
        <mxCell id="6Sj1fqQ_iFhuGv7eRnGK-18" value="User grants camera permissions" style="rounded=0;whiteSpace=wrap;html=1;" vertex="1" parent="1">
          <mxGeometry x="490" y="760" width="120" height="60" as="geometry" />
        </mxCell>
        <mxCell id="6Sj1fqQ_iFhuGv7eRnGK-19" value="" style="endArrow=classic;html=1;rounded=0;" edge="1" parent="1">
          <mxGeometry width="50" height="50" relative="1" as="geometry">
            <mxPoint x="490" y="990" as="sourcePoint" />
            <mxPoint x="490" y="1140" as="targetPoint" />
            <Array as="points">
              <mxPoint x="540" y="990" />
              <mxPoint x="540" y="1140" />
            </Array>
          </mxGeometry>
        </mxCell>
        <mxCell id="6Sj1fqQ_iFhuGv7eRnGK-20" value="User finds and selects picture" style="rounded=0;whiteSpace=wrap;html=1;" vertex="1" parent="1">
          <mxGeometry x="250" y="850" width="120" height="60" as="geometry" />
        </mxCell>
        <mxCell id="6Sj1fqQ_iFhuGv7eRnGK-22" value="" style="endArrow=none;html=1;rounded=0;entryX=0;entryY=0.5;entryDx=0;entryDy=0;" edge="1" parent="1" target="6Sj1fqQ_iFhuGv7eRnGK-9">
          <mxGeometry width="50" height="50" relative="1" as="geometry">
            <mxPoint x="370" y="880" as="sourcePoint" />
            <mxPoint x="420" y="830" as="targetPoint" />
          </mxGeometry>
        </mxCell>
        <mxCell id="6Sj1fqQ_iFhuGv7eRnGK-23" value="" style="endArrow=classic;html=1;rounded=0;entryX=0.417;entryY=-0.002;entryDx=0;entryDy=0;entryPerimeter=0;" edge="1" parent="1">
          <mxGeometry width="50" height="50" relative="1" as="geometry">
            <mxPoint x="431.04" y="880" as="sourcePoint" />
            <mxPoint x="431.0400000000002" y="949.8799999999999" as="targetPoint" />
          </mxGeometry>
        </mxCell>
        <mxCell id="6Sj1fqQ_iFhuGv7eRnGK-25" value="" style="endArrow=classic;html=1;rounded=0;entryX=-0.037;entryY=0.269;entryDx=0;entryDy=0;entryPerimeter=0;" edge="1" parent="1" target="6Sj1fqQ_iFhuGv7eRnGK-1">
          <mxGeometry width="50" height="50" relative="1" as="geometry">
            <mxPoint x="280" y="1040" as="sourcePoint" />
            <mxPoint x="330" y="990" as="targetPoint" />
            <Array as="points">
              <mxPoint x="160" y="1040" />
              <mxPoint x="160" y="676" />
            </Array>
          </mxGeometry>
        </mxCell>
        <mxCell id="6Sj1fqQ_iFhuGv7eRnGK-26" value="" style="endArrow=classic;html=1;rounded=0;" edge="1" parent="1">
          <mxGeometry width="50" height="50" relative="1" as="geometry">
            <mxPoint x="309.71" y="820" as="sourcePoint" />
            <mxPoint x="309.71" y="850" as="targetPoint" />
          </mxGeometry>
        </mxCell>
        <mxCell id="6Sj1fqQ_iFhuGv7eRnGK-27" value="" style="endArrow=classic;html=1;rounded=0;" edge="1" parent="1">
          <mxGeometry width="50" height="50" relative="1" as="geometry">
            <mxPoint x="550" y="820" as="sourcePoint" />
            <mxPoint x="550" y="850" as="targetPoint" />
          </mxGeometry>
        </mxCell>
      </root>
    </mxGraphModel>
  </diagram>
</mxfile>
